<?xml version="1.0" encoding="utf-8"?>
<!-- Generator: Adobe Illustrator 27.5.0, SVG Export Plug-In . SVG Version: 6.00 Build 0)  -->
<svg version="1.1" xmlns="http://www.w3.org/2000/svg" xmlns:xlink="http://www.w3.org/1999/xlink" x="0px" y="0px"
	 viewBox="0 0 500 500" style="enable-background:new 0 0 500 500;" xml:space="preserve">
<g id="Background_Complete">
	<g>
		<rect y="382.398" style="fill:#EBEBEB;" width="500" height="0.25"/>
		<rect x="416.779" y="398.494" style="fill:#EBEBEB;" width="33.122" height="0.25"/>
		<rect x="322.527" y="401.208" style="fill:#EBEBEB;" width="8.693" height="0.25"/>
		<rect x="396.586" y="389.208" style="fill:#EBEBEB;" width="19.192" height="0.25"/>
		<rect x="52.459" y="390.888" style="fill:#EBEBEB;" width="43.193" height="0.25"/>
		<rect x="104.556" y="390.888" style="fill:#EBEBEB;" width="6.333" height="0.25"/>
		<rect x="131.471" y="395.111" style="fill:#EBEBEB;" width="93.676" height="0.25"/>
		<path style="fill:#EBEBEB;" d="M237.014,337.8H43.915c-3.147,0-5.708-2.561-5.708-5.708V60.66c0-3.147,2.561-5.708,5.708-5.708
			h193.099c3.146,0,5.707,2.561,5.707,5.708v271.432C242.721,335.239,240.16,337.8,237.014,337.8z M43.915,55.203
			c-3.01,0-5.458,2.448-5.458,5.458v271.432c0,3.01,2.448,5.458,5.458,5.458h193.099c3.009,0,5.457-2.448,5.457-5.458V60.66
			c0-3.009-2.448-5.458-5.457-5.458H43.915z"/>
		<path style="fill:#EBEBEB;" d="M453.31,337.8H260.212c-3.147,0-5.707-2.561-5.707-5.708V60.66c0-3.147,2.561-5.708,5.707-5.708
			H453.31c3.148,0,5.708,2.561,5.708,5.708v271.432C459.019,335.239,456.458,337.8,453.31,337.8z M260.212,55.203
			c-3.009,0-5.457,2.448-5.457,5.458v271.432c0,3.01,2.448,5.458,5.457,5.458H453.31c3.01,0,5.458-2.448,5.458-5.458V60.66
			c0-3.009-2.448-5.458-5.458-5.458H260.212z"/>
	</g>
	<g>
		<g>
			<g>
				<rect x="142.702" y="198.487" style="fill:#F5F5F5;" width="6.73" height="184.161"/>
			</g>
			<g>
				<rect x="169.309" y="221.869" style="fill:#F5F5F5;" width="6.73" height="160.779"/>
			</g>
			<g>
				<rect x="195.675" y="245.251" style="fill:#F5F5F5;" width="6.73" height="137.397"/>
			</g>
			<g>
				<rect x="222.041" y="229.663" style="fill:#F5F5F5;" width="6.73" height="152.985"/>
			</g>
			<g>
				<rect x="248.407" y="221.869" style="fill:#F5F5F5;" width="6.73" height="160.779"/>
			</g>
			<g>
				<rect x="274.773" y="206.281" style="fill:#F5F5F5;" width="6.73" height="176.367"/>
			</g>
			<g>
				<rect x="301.139" y="214.075" style="fill:#F5F5F5;" width="6.73" height="168.573"/>
			</g>
			<g>
				<rect x="327.505" y="206.281" style="fill:#F5F5F5;" width="6.73" height="176.367"/>
			</g>
			<g>
				<rect x="353.871" y="190.693" style="fill:#F5F5F5;" width="6.73" height="191.955"/>
			</g>
			<g>
				<rect x="380.237" y="175.105" style="fill:#F5F5F5;" width="6.73" height="207.543"/>
			</g>
			<g>
				<rect x="406.603" y="159.518" style="fill:#F5F5F5;" width="6.73" height="223.131"/>
			</g>
			<g>
				<path style="fill:#F0F0F0;" d="M199.04,234.296c-0.38,0-0.758-0.145-1.048-0.426l-56.338-54.935
					c-0.593-0.578-0.605-1.528-0.026-2.121c0.578-0.593,1.527-0.606,2.121-0.026l55.431,54.049l78.074-56.944
					c0.624-0.457,1.494-0.363,2.007,0.218l25.557,28.903l105.8-60.611c0.717-0.412,1.635-0.163,2.047,0.556
					c0.412,0.719,0.163,1.635-0.556,2.047l-106.86,61.218c-0.617,0.352-1.398,0.225-1.869-0.308l-25.462-28.795l-77.995,56.886
					C199.659,234.201,199.349,234.296,199.04,234.296z"/>
			</g>
		</g>
		<g>
			<polygon style="fill:#E0E0E0;" points="192.653,381.505 143.482,187.589 145.938,177.901 143.377,177.901 143.377,122.517 
				136.78,122.517 136.78,177.901 134.219,177.901 136.676,187.589 87.505,381.505 94.311,381.505 136.78,214.018 136.78,382.523 
				143.377,382.523 143.377,214.018 185.846,381.505 			"/>
			<g>
				
					<ellipse transform="matrix(0.2298 -0.9732 0.9732 0.2298 -64.2972 272.6078)" style="fill:#E6E6E6;" cx="140.079" cy="176.925" rx="38.074" ry="38.074"/>
				<circle style="fill:#F5F5F5;" cx="140.079" cy="176.925" r="32.498"/>
				<circle style="fill:#E6E6E6;" cx="140.079" cy="176.925" r="25.441"/>
				
					<ellipse transform="matrix(0.9239 -0.3827 0.3827 0.9239 -57.0435 67.0734)" style="fill:#F5F5F5;" cx="140.079" cy="176.925" rx="20.853" ry="20.853"/>
				
					<ellipse transform="matrix(0.2298 -0.9732 0.9732 0.2298 -64.2972 272.6079)" style="fill:#E6E6E6;" cx="140.079" cy="176.925" rx="14.47" ry="14.47"/>
				
					<ellipse transform="matrix(0.9239 -0.3827 0.3827 0.9239 -57.0435 67.0733)" style="fill:#F5F5F5;" cx="140.079" cy="176.925" rx="10.39" ry="10.39"/>
				<path style="fill:#E6E6E6;" d="M144.793,176.925c0,2.604-2.11,4.714-4.714,4.714s-4.714-2.111-4.714-4.714
					c0-2.603,2.111-4.714,4.714-4.714S144.793,174.322,144.793,176.925z"/>
			</g>
			<g>
				<polygon style="fill:#E6E6E6;" points="91.22,145.527 92.247,152.413 85.088,154.824 92.247,158.582 99.387,156.072 
					98.143,149.286 				"/>
				
					<line style="fill:none;stroke:#E0E0E0;stroke-width:2;stroke-linecap:round;stroke-linejoin:round;stroke-miterlimit:10;" x1="140.079" y1="176.925" x2="88.846" y2="150.67"/>
			</g>
		</g>
		<path style="fill:#F0F0F0;" d="M210.583,134.161c0-4.869,3.948-8.817,8.817-8.817c0.88,0,1.729,0.133,2.532,0.373
			c-0.128-0.884-0.198-1.787-0.198-2.707c0-10.312,8.36-18.671,18.671-18.671c1.175,0,2.324,0.114,3.439,0.322
			c2.87-4.697,8.028-7.842,13.935-7.842c8.94,0,16.192,7.183,16.325,16.092c0.091-0.002,0.18-0.014,0.272-0.014
			c8.307,0,15.04,6.734,15.04,15.041s-6.734,15.041-15.04,15.041h-55.235l0.011-0.012
			C214.398,142.832,210.583,138.946,210.583,134.161z"/>
		<path style="fill:#F0F0F0;" d="M367.47,129.32c0-2.346,1.902-4.248,4.248-4.248c0.424,0,0.833,0.064,1.22,0.18
			c-0.062-0.426-0.095-0.861-0.095-1.304c0-4.969,4.028-8.997,8.997-8.997c0.566,0,1.12,0.055,1.657,0.155
			c1.383-2.263,3.869-3.779,6.715-3.779c4.308,0,7.802,3.461,7.866,7.754c0.044-0.001,0.087-0.007,0.131-0.007
			c4.003,0,7.247,3.245,7.247,7.247c0,4.003-3.245,7.247-7.247,7.247h-26.616l0.005-0.006
			C369.309,133.498,367.47,131.626,367.47,129.32z"/>
		<path style="fill:#F0F0F0;" d="M94.723,134.612c0-1.577,1.279-2.856,2.856-2.856c0.285,0,0.56,0.043,0.82,0.121
			c-0.042-0.286-0.064-0.579-0.064-0.877c0-3.34,2.708-6.048,6.048-6.048c0.381,0,0.753,0.037,1.114,0.104
			c0.929-1.521,2.6-2.54,4.514-2.54c2.896,0,5.245,2.327,5.288,5.212c0.03,0,0.058-0.004,0.088-0.004
			c2.691,0,4.872,2.181,4.872,4.872s-2.181,4.872-4.872,4.872H97.495l0.004-0.004C95.959,137.421,94.723,136.162,94.723,134.612z"/>
	</g>
</g>
<g id="Background_Simple" style="display:none;">
	<g style="display:inline;">
		<path style="fill:#407BFF;" d="M240.9,88.267c24.544-13.208,52.512-6.592,72.493,12.036
			c16.548,15.428,26.569,36.506,34.936,57.526c8.861,22.261,17.911,44.221,28.705,65.516
			c20.636,40.712,46.163,83.724,12.753,125.759c-13.269,16.695-33.999,28.114-55.303,30.096
			c-36.773,3.421-69.135-22.175-105.716-21.59c-52.883,0.846-114.099,27.883-143.167-34.191
			c-15.91-33.975-13.036-74.184,7.011-105.874c23.199-36.673,71.615-48.111,98.873-82.413
			C205.136,117.953,221.575,98.666,240.9,88.267z"/>
		<path style="opacity:0.9;fill:#FFFFFF;" d="M240.9,88.267c24.544-13.208,52.512-6.592,72.493,12.036
			c16.548,15.428,26.569,36.506,34.936,57.526c8.861,22.261,17.911,44.221,28.705,65.516
			c20.636,40.712,46.163,83.724,12.753,125.759c-13.269,16.695-33.999,28.114-55.303,30.096
			c-36.773,3.421-69.135-22.175-105.716-21.59c-52.883,0.846-114.099,27.883-143.167-34.191
			c-15.91-33.975-13.036-74.184,7.011-105.874c23.199-36.673,71.615-48.111,98.873-82.413
			C205.136,117.953,221.575,98.666,240.9,88.267z"/>
	</g>
</g>
<g id="Shadow_1_">
	<ellipse id="_x3C_Path_x3E__359_" style="fill:#F5F5F5;" cx="250" cy="416.238" rx="193.889" ry="11.323"/>
</g>
<g id="Character_1">
	<g id="_x3C_Group_x3E__130_">
		<path style="fill:#EBB376;" d="M138.385,225.559l6.857-3.915c0,0,2.637-4.075,3.428-4.26c0.791-0.186,9.494,0,9.494,0
			s-1.319,5.633-1.451,6.745c-0.132,1.113-8.44,0-8.44,0l-6.725,4.014L138.385,225.559z"/>
		<path style="fill:#263238;" d="M74.492,407.96l-7.184-1.433c-0.264,0.001-0.493,0.185-0.55,0.443l-1.929,7.18
			c-0.109,0.515,0.22,1.02,0.735,1.129c0.069,0.015,0.139,0.022,0.21,0.021c2.537-0.041,4.384-0.197,7.57-0.197
			c1.962,0,7.882,0.205,10.591,0.205c2.709,0,3.062-2.677,1.954-2.923c-4.975-1.084-8.719-2.586-10.312-4.015
			C75.28,408.1,74.892,407.953,74.492,407.96z"/>
		<path style="fill:#263238;" d="M162.357,407.755h-7.841c-0.264,0.001-0.493,0.185-0.55,0.443l-1.273,5.747
			c-0.109,0.514,0.22,1.02,0.735,1.129c0.069,0.015,0.139,0.022,0.21,0.021c2.537-0.041,4.384-0.197,7.57-0.197
			c1.962,0,7.882,0.205,10.591,0.205c2.709,0,3.062-2.677,1.954-2.923c-4.976-1.084-8.719-2.586-10.312-4.015
			C163.146,407.895,162.758,407.748,162.357,407.755z"/>
		<path style="fill:#407BFF;" d="M88.325,275.669l33.206-8.42c7.529,16.44,35.163,83.942,41.857,140.099l-11.241,2.85
			c0,0-19.893-82.821-36.583-106.983c0,0-0.895,36.766-2.703,42.113c-1.488,4.402-35.662,63.275-35.662,63.275l-11.097-1.259
			c0,0,27.846-60.097,29.542-67.581c1.157-5.104-3.918-42.56-3.918-42.56c-0.9-3.347-2.23-17.174-2.23-17.174
			S88.492,276.358,88.325,275.669z"/>
		<path style="opacity:0.2;enable-background:new    ;" d="M115.566,303.218c2.461,3.56,4.924,8.162,7.351,13.424
			c-2.293-12.941-9.424-25.474-9.424-25.474L115.566,303.218z"/>
		<path style="opacity:0.3;enable-background:new    ;" d="M88.325,275.669l33.206-8.42c7.529,16.44,35.163,83.942,41.857,140.099
			l-11.241,2.85c0,0-19.893-82.821-36.583-106.983c0,0-0.895,36.766-2.703,42.113c-1.488,4.402-35.662,63.275-35.662,63.275
			l-11.097-1.259c0,0,27.846-60.097,29.542-67.581c1.157-5.104-3.918-42.56-3.918-42.56c-0.9-3.347-2.23-17.174-2.23-17.174
			S88.492,276.358,88.325,275.669z"/>
		<path style="fill:#263238;" d="M146.05,226.13c0,0-15.14,10.22-19.13,10.76c-1.59,0.22-4.87-0.32-8.26-1.04
			c-5.14-1.1-10.5-2.64-10.5-2.64l-0.67-5.07l-0.71-5.42c1.2-0.4,16.86,6.04,19.2,6.96c2.34,0.92,17.47-8.04,17.47-8.04
			L146.05,226.13z"/>
		<polygon points="99.23,273.33 100.21,277.17 89.49,280.03 88.49,276.05 		"/>
		<polygon points="116.14,269.04 117.07,272.68 101.4,276.86 100.42,273.03 		"/>
		<polygon points="123.24,271.04 118.25,272.37 117.33,268.74 121.91,267.58 		"/>
		
			<rect x="106.966" y="269.888" transform="matrix(-0.9693 0.2458 -0.2458 -0.9693 283.8326 508.9471)" style="fill:#FFFFFF;" width="6.378" height="4.596"/>
		<path style="fill:#263238;" d="M121.9,267.57l-33.42,8.48c-1.63-4.41-3.29-8.85-4.91-13.18c-1.19-3.17-2.36-6.28-3.5-9.29
			c-0.29-0.77-0.58-1.53-0.87-2.28c-0.34-0.9-0.68-1.79-1.01-2.66c-0.74-1.95-1.45-3.83-2.14-5.63c-0.64-1.68-1.26-3.29-1.84-4.81
			c-0.3-0.78-0.59-1.54-0.87-2.28c-0.59-1.54-1.14-2.98-1.65-4.3l35.09-8.9C118.36,242.91,121.9,267.57,121.9,267.57z"/>
		<path style="fill:#EBB376;" d="M84.436,230.764c3.614,1.723,10.277-1.326,10.277-1.326s2.211-2.44,0.892-3.521
			c-2.683,0.348-2.51-0.527-3.481-1.898c-0.564-0.8-0.91-1.786-1.139-2.84c-0.126-0.552-0.21-1.125-0.277-1.694l-10.51-3.773
			C82.589,219.573,86.296,226.883,84.436,230.764z"/>
		<path style="opacity:0.2;enable-background:new    ;" d="M83.402,219.158c1.895,5.053,6.56,5.197,8.721,4.861
			c-0.564-0.8-0.91-1.786-1.139-2.84L83.402,219.158z"/>
		<g>
			<path style="fill:#263238;" d="M97.122,200.032c0,0,2.745,8.302-1.221,12.348c-3.966,4.047-6.663-11.817-6.663-11.817
				L97.122,200.032z"/>
			<path style="fill:#EBB376;" d="M83.921,221.386c2.731,2.781,6.451,2.999,9.391,1.487c1.891-0.969,3.457-2.66,4.236-4.84
				c0.105-0.285,0.192-0.583,0.27-0.888c1.341-5.586,0.5-14.816-5.587-17.293c-4.328-1.797-9.305,0.255-11.101,4.591
				c-0.519,1.229-0.729,2.568-0.631,3.903C80.857,214.55,80.775,218.214,83.921,221.386z"/>
			<path style="fill:#263238;" d="M89.927,210.09c-0.035,0.501,0.263,0.914,0.599,0.914c0.336,0,0.597-0.414,0.601-0.917
				c0.004-0.504-0.271-0.915-0.599-0.914C90.2,209.173,89.931,209.578,89.927,210.09z"/>
			<path style="fill:#263238;" d="M95.646,210.094c-0.035,0.501,0.271,0.915,0.599,0.914c0.328-0.001,0.597-0.414,0.601-0.917
				c0.004-0.504-0.271-0.915-0.599-0.914C95.919,209.177,95.648,209.614,95.646,210.094z"/>
			<path style="fill:#D58745;" d="M93.829,210.342c0.601,1.548,1.413,3.005,2.414,4.33c-0.704,0.503-1.594,0.668-2.432,0.452
				L93.829,210.342z"/>
			<path style="fill:#263238;" d="M97.737,207.747c-0.101,0.047-0.218,0.036-0.309-0.027c-0.6-0.459-1.381-0.607-2.108-0.401
				c-0.152,0.058-0.323-0.018-0.382-0.17c-0.058-0.152,0.018-0.323,0.17-0.382c0,0,0.001,0,0.001,0
				c0.912-0.285,1.905-0.109,2.664,0.471c0.135,0.092,0.169,0.276,0.077,0.41c-0.001,0.002-0.003,0.004-0.004,0.006
				C97.815,207.69,97.778,207.722,97.737,207.747z"/>
			<path style="fill:#263238;" d="M88.803,207.815c-0.06-0.001-0.118-0.021-0.166-0.057c-0.109-0.121-0.099-0.308,0.022-0.417
				c0.002-0.001,0.003-0.003,0.005-0.004c0.708-0.646,1.686-0.906,2.622-0.699c0.157,0.045,0.248,0.208,0.203,0.365l0,0.001
				c-0.048,0.155-0.209,0.244-0.366,0.203l0,0c-0.743-0.143-1.51,0.075-2.068,0.586C88.979,207.837,88.886,207.845,88.803,207.815z"
				/>
			<path style="fill:#263238;" d="M85.062,200.599l0.596,1.152c-2.019,0.766-1.502,3.126-1.037,4.184
				c0.991,2.26-0.146,5.89-1.845,7.396c0,0-0.102-0.994-0.931-0.718c-0.83,0.276-0.354,5.456,1.403,7.855
				c0,0-2.587-2.123-4.244-7.507c-1.533-4.979-1.892-9.172-0.947-11.17L85.062,200.599z"/>
			<path style="fill:#EBB376;" d="M77.78,213.439c0.688,1.406,1.906,2.482,3.387,2.992c1.965,0.661,3.054-1.073,2.604-2.986
				c-0.417-1.696-1.932-4.141-3.952-3.953C77.799,209.68,76.957,211.702,77.78,213.439z"/>
			<path style="fill:#263238;" d="M84.996,223.886c2.945,2.063,8.67,2.73,11.483-1.006c2.812-3.736,1.909-9.714,1.909-9.714
				c-0.46,2.1-1.796,3.656-1.796,3.656c-1.577-1.909-4.287-0.837-4.287-0.837s-0.993-1.315-2.302-1.445
				c-1.309-0.13-4.967,0.089-4.967,0.089c-1.187-0.744-1.23-4.088-1.23-4.088l-0.72,0.598
				C83.085,211.137,82.051,221.823,84.996,223.886z"/>
			<path style="fill:#263238;" d="M92.858,202.717c0,0,6.964-3.397,6.169-6.792c-0.794-3.395-2.864,0.473-2.864,0.473
				s0.942-2.582-0.899-2.943c-1.84-0.361-1.232,1.175-2.223,2.166c-0.992,0.991-10.698-0.449-13.831,1.486s-0.736,8.653-0.736,8.653
				S84.347,199.399,92.858,202.717z"/>
			<path style="opacity:0.2;fill:#FFFFFF;" d="M84.996,223.886c2.945,2.063,8.67,2.73,11.483-1.006
				c2.812-3.736,1.909-9.714,1.909-9.714c-0.46,2.1-1.796,3.656-1.796,3.656c-1.577-1.909-4.287-0.837-4.287-0.837
				s-0.993-1.315-2.302-1.445c-1.309-0.13-4.967,0.089-4.967,0.089c-1.187-0.744-1.23-4.088-1.23-4.088l-0.72,0.598
				C83.085,211.137,82.051,221.823,84.996,223.886z"/>
			<g>
				<path style="fill:#263238;" d="M92.601,217.902c-0.627,0.756-1.451,2.268-1.451,2.268c-0.15-0.05-0.301-0.1-0.448-0.158
					c-2.022-0.729-2.72-1.735-2.88-2.629c-0.086-0.49-0.004-0.95,0.109-1.308c0.127-0.416,0.312-0.683,0.312-0.683
					c0.841,1.027,2.674,1.851,3.672,2.25C92.331,217.815,92.601,217.902,92.601,217.902z"/>
				<path style="fill:#FFFFFF;" d="M91.915,217.643l-0.445,0.658c-1.903-0.691-3.15-1.433-3.539-2.225
					c0.127-0.416,0.312-0.683,0.312-0.683C89.085,216.419,90.918,217.244,91.915,217.643z"/>
				<path style="fill:#DE5753;" d="M90.702,220.012c-2.022-0.729-2.72-1.735-2.88-2.629c0.68,0.275,1.468,0.682,2.085,1.254
					C90.381,219.073,90.601,219.562,90.702,220.012z"/>
			</g>
		</g>
		<g>
			<polygon style="fill:#407BFF;" points="96.03,229.454 95.442,234.632 106.242,257.642 105.166,260.693 101.635,259.056 
				93.944,235.596 88.279,231.757 92.399,229.503 			"/>
			<polygon style="fill:#263238;" points="84.676,225.908 91.826,228.862 92.123,224.02 97.39,225.323 97.838,232.694 
				92.765,230.62 90.651,235.341 81.637,229.317 			"/>
			<polygon style="opacity:0.2;fill:#FFFFFF;" points="84.676,225.908 91.826,228.862 92.123,224.02 97.39,225.323 97.838,232.694 
				92.765,230.62 90.651,235.341 81.637,229.317 			"/>
		</g>
		<path style="opacity:0.2;enable-background:new    ;" d="M78.19,248.64c-0.74-1.95-1.45-3.83-2.14-5.63
			c-0.64-1.68-1.26-3.29-1.84-4.81c-0.3-0.78-0.59-1.54-0.87-2.28c1.05-0.49,3.55-0.197,4.257,1.029
			C80.198,241.462,78.19,248.64,78.19,248.64z"/>
		<path style="opacity:0.2;enable-background:new    ;" d="M90.72,253.72c0,0-0.77,5.72-7.15,9.15c-1.19-3.17-2.36-6.28-3.5-9.29
			c-0.29-0.77-0.58-1.53-0.87-2.28c-0.34-0.9-0.68-1.79-1.01-2.66l11.58,1.47L90.72,253.72z"/>
		<path style="opacity:0.2;enable-background:new    ;" d="M118.66,235.85c-5.14-1.1-10.5-2.64-10.5-2.64l-0.67-5.07
			C107.49,228.14,116.94,229.15,118.66,235.85z"/>
		<g>
			<g>
				<g>
					<path style="fill:#263238;" d="M71.691,353.994c-0.434,0-0.864-0.187-1.16-0.548c-0.526-0.641-0.433-1.586,0.207-2.111
						c16.687-13.7,16.368-35.177,16.059-55.947c-0.233-15.661-0.453-30.454,6.911-40.519c10.342-14.135,51.933-36.564,58.827-37.204
						c4.923-0.493,155.299-42.284,234.125-64.313c0.797-0.224,1.625,0.243,1.849,1.041c0.223,0.798-0.243,1.626-1.041,1.849
						c-9.326,2.606-228.475,63.837-234.655,64.411c-5.932,0.551-47.101,22.893-56.683,35.989
						c-6.771,9.253-6.558,23.558-6.332,38.702c0.305,20.48,0.65,43.693-17.155,58.31C72.363,353.883,72.026,353.994,71.691,353.994z
						"/>
				</g>
				<g style="opacity:0.4;enable-background:new    ;">
					<path style="fill:#FFFFFF;" d="M387.47,156.24c-1.57,0.44-9.1,2.54-20.56,5.74c-56.55,15.78-208.96,58.2-214.1,58.67
						c-5.93,0.55-47.1,22.89-56.68,35.99c-6.77,9.25-6.56,23.56-6.33,38.7c0.3,20.48,0.65,43.7-17.16,58.31
						c-0.28,0.23-0.61,0.34-0.95,0.34c-0.43,0-0.86-0.18-1.16-0.54c-0.53-0.64-0.43-1.59,0.21-2.12
						c16.69-13.7,16.37-35.17,16.06-55.94c-0.24-15.66-0.46-30.46,6.91-40.52c10.34-14.14,51.93-36.57,58.82-37.21
						c4.64-0.46,137.86-37.44,219.28-60.16c5.18-1.45,10.14-2.83,14.85-4.15c0.8-0.22,1.62,0.24,1.85,1.04
						C388.73,155.19,388.26,156.02,387.47,156.24z"/>
				</g>
			</g>
			<path style="opacity:0.2;enable-background:new    ;" d="M387.47,156.24c-1.57,0.44-9.1,2.54-20.56,5.74
				c1.33-1.62,3.05-3.13,4.9-4.48c5.18-1.45,10.14-2.83,14.85-4.15c0.8-0.22,1.62,0.24,1.85,1.04
				C388.73,155.19,388.26,156.02,387.47,156.24z"/>
		</g>
		<path style="fill:#EBB376;" d="M81.908,250.796l7.866-0.685c0,0,4.101-2.596,4.897-2.434c0.796,0.163,8.622,3.975,8.622,3.975
			s-3.556,4.563-4.141,5.519c-0.586,0.955-7.664-3.533-7.664-3.533l-7.788,0.83L81.908,250.796z"/>
		<path style="fill:#263238;" d="M71.695,231.616c-3.573,2.556-12.876,23.341-11.889,26.555c0.987,3.215,29.931-3.12,29.931-3.12
			l-1.277-5.416H72.886l3.704-5.831c0,0,2.281-2.222,0.877-7.383C76.456,232.704,71.695,231.616,71.695,231.616z"/>
	</g>
</g>
<g id="Character_3">
	<g id="_x3C_Group_x3E__129_">
		<path style="fill:#9F5B53;" d="M373.209,233.705l-5.928-2.805c0,0-2.964-5.745-3.876-6.658c-0.912-0.912-5.13,2.648-5.13,3.262
			c0,0.614,3.078,6.428,3.876,6.77c0.798,0.342,3.591,0,3.591,0l5.643,2.733L373.209,233.705z"/>
		<path style="fill:#9F5B53;" d="M387.055,198.143l1.187-4.253c0,0,1.879-5.539,1.681-6.824c-0.198-1.286-1.427-4.447-1.427-4.447
			s-5.2,6.326-5.2,7.118s2.068,3.659,2.068,3.659l-0.98,4.747H387.055z"/>
		<path style="fill:#407BFF;" d="M391.619,229.795c0,0-4.476-5.57-5.8-10.749c-1.325-5.179,2.671-22.033,2.671-22.033l-4.213-1.122
			c0,0-4.958,17.21-5.165,23.492s9.165,24.705,9.165,24.705L391.619,229.795z"/>
		<path style="opacity:0.2;enable-background:new    ;" d="M388.911,241.364l-0.637,2.722c0,0-3.222-6.344-5.853-12.862
			c2.166,1.538,4.487,4.014,5.908,7.91C388.593,239.871,388.784,240.617,388.911,241.364z"/>
		<g>
			<path style="fill:#407BFF;" d="M415.344,241.973c-0.036,1.02-0.191,2.176-0.428,3.459c-0.455,2.494-1.238,5.443-2.13,8.693
				c-0.473,1.711-0.956,3.541-1.456,5.471c-2.23,8.674-3.441,12.124-5.088,23.193l-31.649-7.509c0,0,2.212-13.59,7.783-27.753
				c0.928-2.385,1.966-4.779,3.095-7.136c1.793-3.732,3.841-7.346,6.153-10.595c0,0,5.116,4.679,21.199,7.482
				C414.771,237.613,415.444,239.307,415.344,241.973z"/>
			<path style="opacity:0.2;enable-background:new    ;" d="M411.359,238.39c-0.036,1.019,3.794,5.759,3.557,7.043
				c-0.428,0.291-0.938,0.61-1.52,0.956c-10.705,6.235-24.759,3.068-31.021,1.138c0.928-2.385,2.96-6.779,4.088-9.136l7.511,1.666
				C393.975,240.056,406.271,237.261,411.359,238.39z"/>
		</g>
		<path style="fill:#407BFF;" d="M398.488,231.71c1.148-0.437,10.592,1.913,9.891,2.115c-0.701,0.202-4.215,10.999-9.145,10.189
			C394.305,243.203,394.388,233.27,398.488,231.71z"/>
		<polygon style="fill:#9F5B53;" points="355.754,408.664 349.81,409.948 346.343,396.285 352.294,394.999 		"/>
		<path style="fill:#263238;" d="M348.328,407.471h7.388c0.249,0.001,0.464,0.175,0.518,0.418l1.199,5.415
			c0.103,0.485-0.207,0.961-0.692,1.064c-0.065,0.014-0.131,0.02-0.198,0.019c-2.39-0.039-4.131-0.186-7.133-0.186
			c-1.849,0-7.427,0.193-9.98,0.193c-2.553,0-2.886-2.522-1.841-2.754c4.688-1.021,8.216-2.437,9.716-3.783
			C347.585,407.602,347.951,407.464,348.328,407.471z"/>
		<path style="fill:#407BFF;" d="M346.317,408.538c-0.413,0.033-0.826-0.076-1.168-0.31c-0.228-0.188-0.342-0.481-0.302-0.774
			c-0.004-0.171,0.093-0.329,0.247-0.402c0.673-0.348,2.638,0.859,2.855,0.998c0.051,0.026,0.079,0.083,0.07,0.139
			c-0.008,0.06-0.051,0.109-0.108,0.124C347.389,408.447,346.855,408.522,346.317,408.538z M345.412,407.277
			c-0.064-0.005-0.129,0.008-0.186,0.039c-0.039,0-0.085,0.054-0.093,0.17c-0.025,0.194,0.048,0.388,0.194,0.518
			c0.682,0.309,1.456,0.348,2.166,0.108C346.859,407.704,346.152,407.42,345.412,407.277z"/>
		<path style="fill:#407BFF;" d="M347.872,408.322h-0.07c-0.627-0.34-1.841-1.679-1.717-2.321c0.044-0.221,0.239-0.38,0.464-0.379
			c0.221-0.029,0.444,0.039,0.611,0.186c0.704,0.572,0.851,2.321,0.859,2.406c0.001,0.053-0.026,0.103-0.07,0.132
			C347.922,408.345,347.895,408.337,347.872,408.322z M346.65,405.854h-0.07c-0.186,0-0.201,0.108-0.209,0.147
			c-0.077,0.395,0.696,1.408,1.323,1.88c-0.041-0.693-0.292-1.357-0.719-1.903C346.885,405.898,346.769,405.854,346.65,405.854z"/>
		<path style="fill:#263238;" d="M406.497,283.653c0,0-5.124,24.458-17.131,31.03c-1.384,0.765-2.867,1.284-4.442,1.502
			c0,0-12.17,4.97-22.692,9.73c-6.399,2.895-12.188,5.716-14.263,7.291c-5.48,4.178,7.946,69.269,7.946,69.269l-9.13,0.109
			c0,0-19.188-57.645-15.947-72.773c3.241-15.128,37.629-38.294,37.629-38.294l5.307-14.573L406.497,283.653z"/>
		<path style="opacity:0.2;enable-background:new    ;" d="M389.366,314.683c-1.384,0.765-2.867,1.284-4.442,1.502
			c0,0-12.17,4.97-22.692,9.73c6.772-12.443,18.842-20.535,18.842-20.535L389.366,314.683z"/>
		<polygon style="fill:#9F5B53;" points="432.214,408.664 426.27,409.948 422.803,396.285 428.754,394.999 		"/>
		<path style="fill:#263238;" d="M424.788,407.471h7.388c0.249,0.001,0.464,0.175,0.518,0.418l1.199,5.415
			c0.103,0.485-0.207,0.961-0.692,1.064c-0.065,0.014-0.131,0.02-0.197,0.019c-2.391-0.039-4.131-0.186-7.133-0.186
			c-1.849,0-7.427,0.193-9.98,0.193c-2.553,0-2.886-2.522-1.841-2.754c4.688-1.021,8.216-2.437,9.716-3.783
			C424.045,407.602,424.411,407.464,424.788,407.471z"/>
		<path style="fill:#407BFF;" d="M422.777,408.538c-0.413,0.033-0.826-0.076-1.168-0.31c-0.228-0.188-0.342-0.481-0.302-0.774
			c-0.004-0.171,0.093-0.329,0.247-0.402c0.673-0.348,2.638,0.859,2.855,0.998c0.051,0.026,0.079,0.083,0.07,0.139
			c-0.007,0.06-0.05,0.109-0.108,0.124C423.849,408.447,423.315,408.522,422.777,408.538z M421.872,407.277
			c-0.064-0.005-0.129,0.008-0.186,0.039c-0.039,0-0.085,0.054-0.093,0.17c-0.025,0.194,0.048,0.388,0.193,0.518
			c0.682,0.309,1.456,0.348,2.166,0.108C423.319,407.704,422.612,407.42,421.872,407.277z"/>
		<path style="fill:#407BFF;" d="M424.332,408.322h-0.07c-0.627-0.34-1.841-1.679-1.717-2.321c0.044-0.221,0.239-0.38,0.464-0.379
			c0.221-0.029,0.444,0.039,0.611,0.186c0.704,0.572,0.851,2.321,0.859,2.406c0.001,0.053-0.026,0.103-0.07,0.132
			C424.382,408.345,424.354,408.337,424.332,408.322z M423.109,405.854h-0.07c-0.186,0-0.201,0.108-0.209,0.147
			c-0.077,0.395,0.696,1.408,1.323,1.88c-0.041-0.693-0.292-1.357-0.72-1.903C423.345,405.898,423.229,405.854,423.109,405.854z"/>
		<path style="fill:#9F5B53;" d="M408.549,236.895c-1.493,0.964-8.354,0.616-8.354,0.616l-3.235,3.482l-0.304-5.768
			c0,0-2.153-0.898-1.568-1.519c1.952,0,3.263-0.529,4.141-1.388c1.392-1.362,1.666-3.544,1.647-5.719
			c-0.004-0.024,0.001-0.055-0.002-0.079l0.009-0.006l5.874-3.008l4.052-2.085C408.934,225.558,406.203,233.286,408.549,236.895z"/>
		<path style="opacity:0.2;enable-background:new    ;" d="M408.72,224.904c-1.944,4.902-7.024,7.091-9.492,7.414
			c1.392-1.362,1.666-3.544,1.647-5.719c0.005-0.031,0.01-0.061,0.006-0.085l5.874-3.008
			C406.747,224.312,409.016,224.153,408.72,224.904z"/>
		<g>
			<path style="fill:#263238;" d="M412.447,224.699c0,0,3.816,2.04,5.086-0.388c1.27-2.428-0.539-2.528,1.322-3.388
				c1.861-0.86,4.531-1.465,3.921-3.275c-0.61-1.81-2.495-2.031-0.396-3.963c2.099-1.933,2.565-4.829-0.578-5.374
				c-3.143-0.545-1.943-2.965-2.104-4.035c-0.161-1.07-1.922-1.698-3.832-1.299s-2.707-2.427-3.884-3.31
				c-1.177-0.883-2.814,0.206-3.24,1.398c-0.426,1.192-1.558-0.399-3.246-0.593c-1.688-0.194-1.284,1.568-1.81,3.219
				c-0.527,1.651-1.548,0.575-2.748,1.935C399.737,206.985,399.629,216.268,412.447,224.699z"/>
			<path style="fill:#9F5B53;" d="M414.106,219.001c-2.862,4.503-4.492,7.472-7.712,8.928c-0.414,0.191-0.859,0.358-1.344,0.498
				c-6.262,1.841-11.417-4.188-9.766-10.155c0.279-0.997,0.685-2.063,1.197-3.138c2.234-4.694,6.552-9.497,11.697-8.863
				c4.523,0.522,7.762,4.603,7.241,9.125C415.269,216.684,414.819,217.917,414.106,219.001z"/>
			<path style="fill:#263238;" d="M405.299,216.025c-0.207,0.441-0.655,0.65-0.939,0.491c-0.284-0.159-0.31-0.632-0.075-1.061
				c0.235-0.428,0.662-0.647,0.939-0.491C405.501,215.12,405.537,215.589,405.299,216.025z"/>
			<path style="fill:#263238;" d="M400.454,213.327c-0.207,0.441-0.662,0.647-0.939,0.491c-0.277-0.156-0.31-0.632-0.075-1.061
				c0.235-0.428,0.662-0.647,0.939-0.491C400.656,212.422,400.679,212.92,400.454,213.327z"/>
			<path style="fill:#892B29;" d="M401.876,214.395c-1.24,1.027-2.616,1.877-4.089,2.527c0.359,0.758,1.034,1.318,1.846,1.531
				L401.876,214.395z"/>
			<path style="fill:#263238;" d="M408.198,214.884c-0.107,0.013-0.212-0.032-0.277-0.117c-0.417-0.602-1.093-0.973-1.825-0.999
				c-0.158,0.008-0.293-0.113-0.301-0.271c-0.008-0.158,0.113-0.293,0.271-0.301c0,0,0.001,0,0.001,0
				c0.926,0.01,1.79,0.468,2.317,1.229c0.097,0.125,0.074,0.305-0.051,0.402c-0.002,0.001-0.004,0.003-0.005,0.004
				C408.287,214.856,408.243,214.874,408.198,214.884z"/>
			<path style="fill:#263238;" d="M400.796,221.128L400.796,221.128c1.37,0.447,2.871,0.198,4.023-0.667
				c0.063-0.055,0.071-0.15,0.017-0.215c-0.05-0.064-0.143-0.075-0.206-0.025c-0.003,0.002-0.006,0.005-0.009,0.007
				c-1.082,0.778-2.467,1.001-3.738,0.602c-0.077-0.027-0.16,0.013-0.188,0.09c-0.002,0.005-0.003,0.01-0.005,0.016
				c-0.027,0.077,0.013,0.16,0.09,0.188C400.786,221.126,400.791,221.127,400.796,221.128z"/>
			<path style="fill:#263238;" d="M400.022,209.18c-0.022-0.054-0.027-0.113-0.013-0.17c0.066-0.144,0.236-0.207,0.379-0.141
				c0.002,0.001,0.004,0.002,0.006,0.003c0.847,0.381,1.456,1.151,1.632,2.063c0.021,0.157-0.089,0.301-0.246,0.321c0,0,0,0-0.001,0
				c-0.156,0.016-0.297-0.092-0.322-0.247l0,0c-0.159-0.716-0.648-1.315-1.318-1.614
				C400.071,209.345,400.028,209.266,400.022,209.18z"/>
			<path style="fill:#263238;" d="M404.12,206.69c1.457,0.18,2.181,1.956,2.181,1.956s3.565,1.333,5.098,2.389
				c1.533,1.056,1.239,2.946,1.183,3.427c-0.056,0.481-1.227,0.917-1.227,0.917s-2.166,5.097-2.753,6.512l0.296,4.704
				c0,0,5.759-3.219,9.172-10.323c3.413-7.104-10.818-13.35-10.818-13.35L404.12,206.69z"/>
			<path style="fill:#9F5B53;" d="M413.253,226.125c-1.332,0.727-2.899,0.897-4.356,0.471c-1.925-0.577-1.816-2.56-0.388-3.821
				c1.28-1.109,3.848-2.195,5.341-0.915C415.343,223.14,414.877,225.211,413.253,226.125z"/>
		</g>
		<path style="fill:#407BFF;" d="M408.378,233.825l-7.953,2.288l-3.427,4.643l0.936-5.685c0,0-0.858-1.312,0.553-3.361l-4.841,0.998
			l-2.919,4.887l5.679-1.339l0.398,5.675l3.305-3.899l2.712,4.275l8.054-5.11L408.378,233.825z"/>
		<path style="opacity:0.2;enable-background:new    ;" d="M408.378,233.825l-7.953,2.288l-3.427,4.643l0.936-5.685
			c0,0-0.858-1.312,0.553-3.361l-4.841,0.998l-2.919,4.887l5.679-1.339l0.398,5.675l3.305-3.899l2.712,4.275l8.054-5.11
			L408.378,233.825z"/>
		<g>
			<polygon points="375.012,272.005 373.77,276.944 406.492,283.653 406.977,278.163 			"/>
			<path style="fill:#FFFFFF;" d="M389.617,274.585c-0.26-0.367-7.539-1.932-8.225-1.413c0,0-1.415,4.873-1.175,5.38
				c0.241,0.508,7.327,1.502,7.984,1.637C388.858,280.324,389.877,274.952,389.617,274.585z M387.62,279.544
				c-0.54-0.111-6.364-0.928-6.562-1.345c-0.198-0.417,0.965-4.422,0.965-4.422c0.564-0.426,6.546,0.861,6.76,1.162
				C388.998,275.24,388.16,279.655,387.62,279.544z"/>
			<path style="fill:#FFFFFF;" d="M387.895,276.249l-1.441-0.295c-0.274-0.056-0.545,0.107-0.625,0.375l-0.007,0.022
				c-0.091,0.306,0.103,0.624,0.417,0.683l1.448,0.273c0.304,0.057,0.594-0.152,0.634-0.459
				C388.358,276.567,388.172,276.306,387.895,276.249z"/>
		</g>
		<path style="fill:#263238;" d="M406.492,283.653c0,0,0.627,37.017-0.411,47.798c-1.038,10.781,25.892,69.908,25.892,69.908h-8.735
			c0,0-26.446-43.278-32.511-56.602c-6.065-13.323-10.537-45.094-10.537-45.094L406.492,283.653z"/>
		<path style="fill:#407BFF;" d="M415.454,239.399c-1.352-3.057-22.082,1.475-23.954,0.941c-1.871-0.533-21.334-8.684-21.334-8.684
			l-1.684,4.366c0,0,17.452,10.008,21.264,11.575c3.812,1.567,19.094,0.818,22.962-0.866
			C416.577,245.047,416.246,241.189,415.454,239.399z"/>
	</g>
</g>
<g id="Arrow">
	<g>
		<path style="fill:#407BFF;" d="M411.783,159.925l-6.28-40.027l-33.079,23.397l11.027,4.659
			c-10.623,24.34-45.073,95.649-104.346,148.228C203.377,363.357,97.439,396.397,96.378,396.723l5.863,19.122
			c4.498-1.379,111.077-34.572,190.135-104.701c62.996-55.882,98.424-129.588,109.54-155.388L411.783,159.925z"/>
		<path style="opacity:0.4;fill:#FFFFFF;enable-background:new    ;" d="M405.783,152.925l-0.28-33.027l-33.079,23.397l11.027,4.659
			c-10.623,24.34-45.073,95.649-104.346,148.228C203.377,363.357,97.439,396.397,96.378,396.723l1.863,12.122
			c4.498-1.379,111.077-31.572,190.135-101.701c62.996-55.882,96.424-130.588,107.54-156.388L405.783,152.925z"/>
		<g>
			<path style="fill:#263238;" d="M400.002,161.622c-0.153,0-0.309-0.023-0.462-0.073l-19.215-6.208
				c-0.789-0.254-1.221-1.1-0.966-1.888c0.254-0.788,1.102-1.223,1.888-0.966l19.215,6.208c0.789,0.254,1.221,1.1,0.966,1.888
				C401.224,161.218,400.635,161.622,400.002,161.622z"/>
		</g>
		<g style="opacity:0.4;enable-background:new    ;">
			<path style="fill:#FFFFFF;" d="M400.002,161.622c-0.153,0-0.309-0.023-0.462-0.073l-19.215-6.208
				c-0.789-0.254-1.221-1.1-0.966-1.888c0.254-0.788,1.102-1.223,1.888-0.966l19.215,6.208c0.789,0.254,1.221,1.1,0.966,1.888
				C401.224,161.218,400.635,161.622,400.002,161.622z"/>
		</g>
	</g>
</g>
<g id="Character_2">
	<g>
		<g>
			<g>
				<path style="fill:#263238;" d="M169.933,348.82c-0.829,0-1.5-0.672-1.5-1.5c0-47.737,13.866-54.017,16.469-54.772l44.14-30.846
					c0.031-0.021,0.062-0.042,0.094-0.06l169.382-100.459c0.712-0.423,1.632-0.188,2.055,0.525c0.423,0.712,0.188,1.633-0.525,2.055
					L230.714,264.193l-44.319,30.971c-0.186,0.13-0.398,0.216-0.621,0.251c-0.113,0.025-14.341,3.508-14.341,51.905
					C171.433,348.148,170.762,348.82,169.933,348.82z"/>
			</g>
			<g style="opacity:0.4;enable-background:new    ;">
				<path style="fill:#FFFFFF;" d="M169.933,348.82c-0.829,0-1.5-0.672-1.5-1.5c0-47.737,13.866-54.017,16.469-54.772l44.14-30.846
					c0.031-0.021,0.062-0.042,0.094-0.06l169.382-100.459c0.712-0.423,1.632-0.188,2.055,0.525c0.423,0.712,0.188,1.633-0.525,2.055
					L230.714,264.193l-44.319,30.971c-0.186,0.13-0.398,0.216-0.621,0.251c-0.113,0.025-14.341,3.508-14.341,51.905
					C171.433,348.148,170.762,348.82,169.933,348.82z"/>
			</g>
		</g>
		<path style="fill:#407BFF;" d="M181.45,299.28c0,0-7.71,4.97-13.57,6.51c-1.75,0.47-3.33,0.62-4.49,0.25
			c-4.36-1.38-1.77-9.82,0.83-15.15c0.42-0.87,0.84-1.65,1.23-2.31l7.62,4.71c0,0-4.62,6.59-4.09,6.98c0.53,0.4,7.65-3.56,8.04-3.69
			C177.42,296.45,181.45,299.28,181.45,299.28z"/>
		<path style="opacity:0.2;enable-background:new    ;" d="M181.45,299.28c0,0-7.71,4.97-13.57,6.51
			c-1.79-5.08-2.97-10.78-3.66-14.9c0.42-0.87,0.84-1.65,1.23-2.31l7.62,4.71c0,0-4.62,6.59-4.09,6.98c0.53,0.4,7.65-3.56,8.04-3.69
			C177.42,296.45,181.45,299.28,181.45,299.28z"/>
		<path style="fill:#EEC1BB;" d="M219.022,270.257l4.519-4.034c0,0,0.968-2.824,1.452-3.228c0.484-0.403,8.714-1.049,8.714-1.049
			s0.161,4.357-0.484,5.487c-0.646,1.13-7.374,1.614-7.374,1.614l-3.6,3.47L219.022,270.257z"/>
		<path style="fill:#EEC1BB;" d="M243.08,365.05c-1.29,18.56-4.74,44.9-4.74,44.9l-4.44,0.98c0,0-4.1-22.05-3.45-42.51
			c0.15-4.61,0.54-9.14,1.26-13.31c0,0-15.38-5.91-26.06-11.2c-5.1-2.52-9.13-4.91-9.9-6.45c-2.38-4.75,8.44-15.91,8.44-15.91
			c0.34,0.27,6.87,4.43,14.47,9.36c10.09,6.54,22.06,14.44,24.02,16.41C243.82,348.47,243.72,355.79,243.08,365.05z"/>
		<path style="opacity:0.2;enable-background:new    ;" d="M243.08,365.05c-4.68,1.71-9.07,2.74-12.63,3.37
			c0.15-4.61,0.54-9.14,1.26-13.31c0,0-15.38-5.91-26.06-11.2l13.01-13c10.09,6.54,22.06,14.44,24.02,16.41
			C243.82,348.47,243.72,355.79,243.08,365.05z"/>
		<path style="fill:#EEC1BB;" d="M208.461,318.473c0,0,42.671,24.527,48.473,30.066c5.802,5.538,39.278,57.315,39.278,57.315
			l-2.819,2.69c0,0-27.807-23.867-38.888-46.555l-46.044-22.224V318.473z"/>
		<g>
			<path style="fill:#EEC1BB;" d="M176.042,273.184c0.069,0.045,0.145,0.089,0.218,0.117c1.014,0.527,2.161,1.007,3.404,1.113
				c3.478,0.306,5.715-0.477,7.004-2.211c0.008-0.001,0.008-0.001,0.008-0.001c1.784-2.581,1.744-6.706,0.763-11.55
				c-0.443-2.223-1.036-4.128-1.865-5.558c-0.01-0.014-0.018-0.07-0.027-0.085c-0.039-0.057-0.074-0.139-0.113-0.196
				c-1.218-1.99-2.942-3.149-5.47-3.386c-0.874-0.08-1.85-0.057-2.934,0.08C167.488,252.742,167.98,268.763,176.042,273.184z"/>
			<path style="opacity:0.2;enable-background:new    ;" d="M176.261,273.301c1.014,0.527,2.143,0.874,3.385,0.98
				c3.478,0.307,5.7-0.587,6.985-2.344c-1.603,0.597-3.809,1.045-6.114,0.35C179.066,271.852,177.594,272.384,176.261,273.301z"/>
			<path style="fill:#EBB376;" d="M175.62,281.119c-0.832,2.677,2.603,4.102,2.603,4.102c5.999-1.956,7.345-4.935,7.345-4.935
				c-4.599-2.942-2.574-9.933-2.574-9.933l-1.024,0.396l-7.006,0.737c0,0,1.586,3.836,1.765,4.694
				c-0.001,0.008,0.006,0.016,0.006,0.024C177.643,280.688,175.62,281.119,175.62,281.119z"/>
			<path style="fill:#263238;" d="M185.569,255.031c0,0,1.459,6.609-4.471,10.363c0,0-1.748,7.321-5.737,7.978
				c-5.438,0.897-11.333-6.196-10.548-14.369C165.83,248.406,181.251,245.4,185.569,255.031z"/>
			<path style="fill:#EBB376;" d="M184.036,263.028c-0.148-1.042-1.231-2.675-2.818-2.211c-1.642,0.48-1.994,4.744,2.256,5.091
				C184.085,265.958,184.345,265.202,184.036,263.028z"/>
		</g>
		<path style="fill:#263238;" d="M294.352,402.667l-4.602,3.547c-0.195,0.152-0.26,0.42-0.155,0.644l2.344,4.995
			c0.214,0.444,0.747,0.631,1.191,0.418c0.06-0.029,0.116-0.064,0.167-0.105c1.86-1.482,1.922-1.715,4.288-3.538
			c1.457-1.123,5.969-4.358,7.981-5.909c2.012-1.55,0.742-3.74-0.222-3.288c-4.314,2.043-7.954,3.07-9.954,2.92
			C295.018,402.32,294.645,402.432,294.352,402.667z"/>
		<path style="fill:#407BFF;" d="M295.354,402.583c-0.055,0.023-0.118,0.011-0.16-0.032c-0.042-0.039-0.054-0.1-0.03-0.152
			c0.086-0.241,0.901-2.386,1.643-2.52c0.167-0.036,0.339,0.029,0.439,0.167c0.21,0.206,0.298,0.506,0.232,0.793
			c-0.128,0.392-0.387,0.728-0.733,0.953C296.312,402.106,295.846,402.371,295.354,402.583z M295.561,402.171
			c0.705-0.242,1.291-0.743,1.641-1.401c0.035-0.191-0.025-0.388-0.163-0.526c-0.077-0.087-0.146-0.101-0.176-0.078
			c-0.063,0.01-0.122,0.039-0.17,0.082C296.196,400.811,295.812,401.464,295.561,402.171z"/>
		<path style="fill:#407BFF;" d="M295.342,402.631c-0.052,0.004-0.103-0.019-0.135-0.061c-0.046-0.072-0.992-1.539-0.785-2.417
			c0.043-0.218,0.177-0.406,0.369-0.518c0.177-0.138,0.427-0.13,0.596,0.017c0.487,0.431,0.343,2.223,0.056,2.872l-0.055,0.042
			C295.381,402.592,295.364,402.615,295.342,402.631z M294.672,400.174c-0.005,0.69,0.2,1.366,0.589,1.936
			c0.207-0.752,0.201-2.021-0.099-2.285c-0.03-0.026-0.108-0.102-0.254,0.011l-0.055,0.042
			C294.759,399.952,294.695,400.057,294.672,400.174z"/>
		<path style="fill:#263238;" d="M239.122,406.957l-5.809,0.116c-0.248,0.006-0.458,0.183-0.507,0.426l-1.085,5.41
			c-0.092,0.484,0.225,0.952,0.71,1.044c0.065,0.012,0.131,0.018,0.197,0.015c2.377-0.086,2.565-0.236,5.551-0.296
			c1.839-0.037,7.391,0.045,9.93-0.006c2.539-0.051,2.82-2.566,1.777-2.776c-4.683-0.923-8.22-2.261-9.74-3.57
			C239.864,407.073,239.498,406.942,239.122,406.957z"/>
		<path style="fill:#407BFF;" d="M239.635,407.642c-0.058-0.014-0.102-0.062-0.11-0.121c-0.011-0.056,0.016-0.113,0.066-0.14
			c0.213-0.143,2.143-1.382,2.82-1.049c0.155,0.07,0.255,0.225,0.254,0.395c0.046,0.29-0.062,0.584-0.285,0.776
			c-0.336,0.239-0.744,0.356-1.156,0.331C240.69,407.829,240.156,407.765,239.635,407.642z M240.047,407.434
			c0.711,0.224,1.48,0.17,2.152-0.151c0.142-0.133,0.21-0.327,0.182-0.52c-0.01-0.115-0.057-0.168-0.096-0.167
			c-0.057-0.029-0.121-0.041-0.185-0.035C241.366,406.719,240.669,407.015,240.047,407.434z"/>
		<path style="fill:#407BFF;" d="M239.597,407.674c-0.044-0.028-0.072-0.077-0.072-0.129c0.006-0.085,0.117-1.827,0.806-2.41
			c0.164-0.15,0.384-0.221,0.604-0.197c0.224-0.005,0.421,0.149,0.469,0.368c0.136,0.636-1.046,1.992-1.662,2.342l-0.069,0.001
			C239.652,407.665,239.625,407.674,239.597,407.674z M240.52,405.3c-0.415,0.552-0.651,1.217-0.678,1.907
			c0.614-0.482,1.363-1.505,1.279-1.896c-0.009-0.038-0.026-0.146-0.211-0.142l-0.069,0.001
			C240.722,405.173,240.608,405.219,240.52,405.3z"/>
		<path style="fill:#407BFF;" d="M207.27,311.9l-21.17,8.89c-8.75-21.75-20.65-32.21-20.65-32.21
			c8.48-10.17,24.14-14.85,24.14-14.85c2.18,1.68,4.14,3.99,5.91,6.64c1.73,2.62,3.26,5.57,4.6,8.59
			C204.98,299.97,207.27,311.9,207.27,311.9z"/>
		<path style="fill:#263238;" d="M185.37,259.417c0,0,6.654-6.781,0.276-11.244c-6.378-4.463-12.69,1.498-12.69,1.498
			s-15.129,3.806-11.805,13.854c3.323,10.049,5.44,10.888,0.689,16.103c-4.751,5.216-9.587,12.921-4.633,17.768
			c4.954,4.847,22.061-0.35,27.197-7.789C189.541,282.169,180.189,266.4,185.37,259.417z"/>
		<path style="fill:#263238;" d="M205.733,305.381l-22.979,7.891c0,0,5.081,25.048,8.773,29.234
			c3.692,4.186,28.363,23.59,31.852,22.064c3.489-1.526,26.621-22.064,26.621-22.064l-39.168-26.858L205.733,305.381z"/>
		<g>
			<polygon points="202.384,310.094 207.269,308.473 206.063,306.045 201.431,307.676 			"/>
			<polygon points="187.761,312.49 182.754,314.253 183.415,316.386 188.317,314.76 			"/>
			<polygon points="189.374,314.409 201.396,310.421 200.504,308.002 188.714,312.154 			"/>
		</g>
		<path style="opacity:0.2;enable-background:new    ;" d="M200.1,288.96c-5.06-0.59-7.91-8.2-7.91-8.2
			c1.17-0.21,2.27-0.33,3.31-0.39C197.23,282.99,198.76,285.94,200.1,288.96z"/>
		<path style="fill:#407BFF;" d="M189.59,273.728c5.498-0.816,17.804,3.641,18.871,3.588c1.066-0.052,13.043-9.427,13.043-9.427
			l3.097,2.729c0,0-12.502,12.896-15.074,13.034c-2.572,0.138-16.022-0.864-16.022-0.864s-3.281-1.173-3.915-4.14
			C188.956,275.681,189.59,273.728,189.59,273.728z"/>
	</g>
</g>
</svg>
